<svg xmlns="http://www.w3.org/2000/svg" width="11" height="10" viewBox="0 0 11 10">
    <g fill="none" fill-rule="evenodd">
        <path d="M-3-3h16v16H-3z"/>
        <path fill="#434A54" d="M2.846.76C1.75.76.79 1.765.79 2.913c0 2.906 3.704 5.87 4.502 5.903.8-.032 4.502-2.997 4.502-5.903 0-1.148-.96-2.155-2.056-2.155-1.33 0-2.074 1.486-2.08 1.501-.122.285-.61.285-.73 0-.007-.015-.75-1.5-2.082-1.5zm2.446 8.816h-.007C3.925 9.552 0 6.142 0 2.914 0 1.36 1.33 0 2.846 0 4.05 0 4.862.8 5.292 1.382 5.722.8 6.532 0 7.738 0c1.516 0 2.846 1.36 2.846 2.914 0 3.228-3.924 6.638-5.285 6.662h-.007z"/>
    </g>
</svg>
