<svg xmlns="http://www.w3.org/2000/svg" width="15" height="15" viewBox="0 0 15 15">
    <g fill="#3F363F" fill-rule="nonzero">
        <path d="M7.5 0C3.365 0 0 3.364 0 7.5S3.365 15 7.5 15 15 11.636 15 7.5 11.635 0 7.5 0zm0 14.077A6.584 6.584 0 0 1 .923 7.5 6.584 6.584 0 0 1 7.5.923 6.584 6.584 0 0 1 14.077 7.5 6.584 6.584 0 0 1 7.5 14.077z"/>
        <circle cx="7.62" cy="4.509" r="1"/>
        <path d="M7.416 6.54a.462.462 0 0 0-.461.462v3.923a.462.462 0 0 0 .923 0V7.002a.462.462 0 0 0-.462-.462z"/>
    </g>
</svg>
