<svg xmlns="http://www.w3.org/2000/svg" xmlns:xlink="http://www.w3.org/1999/xlink" width="11" height="10" viewBox="0 0 11 10">
    <defs>
        <path id="a" d="M0 0h16v16H0z"/>
    </defs>
    <g fill="none" fill-rule="evenodd" transform="translate(-3 -2)">
        <mask id="b" fill="#fff">
            <use xlink:href="#a"/>
        </mask>
        <path fill="#434A54" d="M11.287 8.573c-.597.486-2.56 1.724-3.566 2.35V9.31c0-.21-.177-.38-.395-.38h-.21C5.19 8.93 3.79 7.677 3.79 5.95c0-1.79 1.457-3.19 3.317-3.19l2.183.004h.001c1.861 0 3.317 1.4 3.319 3.188 0 .967-.496 1.946-1.323 2.621M9.293 2.005L7.109 2h-.001C4.803 2 3 3.735 3 5.95c0 2.075 1.678 3.648 3.931 3.732v1.938c0 .055.023.145.063.205a.399.399 0 0 0 .332.175.4.4 0 0 0 .212-.06c.14-.085 3.41-2.096 4.26-2.788 1.001-.815 1.6-2.009 1.602-3.195V5.948c-.003-2.211-1.806-3.943-4.107-3.943" mask="url(#b)"/>
    </g>
</svg>
