<svg xmlns="http://www.w3.org/2000/svg" width="15" height="16" viewBox="0 0 15 16">
    <path fill="#8F6B8B" fill-rule="nonzero" d="M12.075 3.065a8.858 8.858 0 0 1 2.033 2.857 9.179 9.179 0 0 1 .802 3.383c0 .13-.06.245-.18.345-.07.1-.175.15-.315.15h-.99a.44.44 0 0 1-.285-.113.363.363 0 0 1-.135-.292 7.344 7.344 0 0 0-1.17-3.57A7.948 7.948 0 0 0 9.12 3.26a8.48 8.48 0 0 0-3.78-1.11c-.12 0-.22-.04-.3-.12a.426.426 0 0 1-.12-.315v-.99a.36.36 0 0 1 .053-.157.864.864 0 0 1 .112-.166c.04-.045.1-.072.18-.082.05-.01.13-.015.24-.015 1.24.04 2.427.3 3.562.78a9.765 9.765 0 0 1 3.008 1.98zM4.425 7.49c.41 0 .795.057 1.155.172.36.116.67.273.93.473.6.45.9 1.17.9 2.16v5.025H4.575v-4.515c0-.17-.01-.322-.03-.457a2.534 2.534 0 0 0-.03-.188.568.568 0 0 0-.225-.165.881.881 0 0 0-.45-.105c-.45 0-.755.165-.915.495-.11.26-.165.545-.165.855v4.08H0V7.64h2.76v.345c.39-.33.945-.495 1.665-.495zm.99-3.75c.8.08 1.542.262 2.227.547a5.8 5.8 0 0 1 1.763 1.118c.55.54.985 1.135 1.305 1.785.32.65.5 1.325.54 2.025.04.08.05.15.03.21-.02.04-.06.09-.12.15a.507.507 0 0 1-.315.135H9.84a.468.468 0 0 1-.292-.113.355.355 0 0 1-.143-.292 3.792 3.792 0 0 0-.638-1.838 4.445 4.445 0 0 0-1.462-1.38 4.563 4.563 0 0 0-1.965-.622.422.422 0 0 1-.3-.113.383.383 0 0 1-.12-.292v-.915c0-.03.02-.075.06-.135.06-.1.102-.167.128-.203a.137.137 0 0 1 .097-.06c.04-.005.11-.007.21-.007z"/>
</svg>
