<svg xmlns="http://www.w3.org/2000/svg" width="15" height="16" viewBox="0 0 15 16">
    <path fill="#8F6B8B" fill-rule="nonzero" d="M4.02 7.73c1.12 0 2.025.39 2.715 1.17.39.38.68.78.87 1.2.2.44.3.925.3 1.455 0 1-.39 1.89-1.17 2.67-.36.38-.77.657-1.23.833-.46.175-.985.262-1.575.262-.65 0-1.21-.11-1.68-.33a3.74 3.74 0 0 1-1.335-1.02C.305 13.2 0 12.29 0 11.24V5.15h2.85v6c0 .51.085.887.255 1.133.17.245.445.367.825.367.1 0 .22-.035.36-.105.07-.04.195-.115.375-.225.23-.23.345-.485.345-.765 0-.16-.023-.3-.067-.42-.045-.12-.113-.2-.203-.24a1.09 1.09 0 0 0-.322-.255.924.924 0 0 0-.398-.075c-.27 0-.525.08-.765.24v-3c.21-.05.465-.075.765-.075zm1.635-3.99c1.55.06 2.83.635 3.84 1.725a6.22 6.22 0 0 1 1.298 1.732c.325.646.507 1.318.547 2.018.04.08.05.15.03.21-.02.04-.06.09-.12.15a.507.507 0 0 1-.315.135H9.99a.423.423 0 0 1-.27-.112.363.363 0 0 1-.135-.293 4.057 4.057 0 0 0-.63-1.838A4.304 4.304 0 0 0 7.56 6.095c-.6-.36-1.255-.57-1.965-.63a.461.461 0 0 1-.315-.105c-.08-.07-.12-.17-.12-.3v-.915c0-.1.01-.172.03-.217.02-.046.07-.088.15-.128a.183.183 0 0 1 .113-.052 2 2 0 0 1 .202-.008zm6.42-.675c.89.85 1.58 1.79 2.07 2.82.51 1.07.765 2.16.765 3.27.04.07.05.13.03.18-.02.04-.06.09-.12.15l-.12.12a.375.375 0 0 1-.195.045H13.5a.41.41 0 0 1-.27-.12.401.401 0 0 1-.135-.315 7.082 7.082 0 0 0-1.125-3.54 7.557 7.557 0 0 0-2.655-2.52 8.277 8.277 0 0 0-3.72-1.08.426.426 0 0 1-.315-.12.407.407 0 0 1-.12-.3v-.93c0-.07.01-.125.03-.165.02-.07.07-.125.15-.165A.189.189 0 0 1 5.445.32c.04-.01.09-.015.15-.015 1.26.09 2.435.365 3.525.825a9.518 9.518 0 0 1 2.955 1.935z"/>
</svg>
