<svg xmlns="http://www.w3.org/2000/svg" xmlns:xlink="http://www.w3.org/1999/xlink" width="13" height="9" viewBox="0 0 13 9">
    <defs>
        <path id="a" d="M.465.242h15.059v15.059H.465z"/>
    </defs>
    <g fill="none" fill-rule="evenodd" transform="translate(-1.494 -2.257)">
        <mask id="b" fill="#fff">
            <use xlink:href="#a"/>
        </mask>
        <g fill="#434A54" mask="url(#b)">
            <path d="M13.738 8.175a.356.356 0 0 0-.488 0l-1.171 1.127V4.483c0-.915-.774-1.66-1.726-1.66h-3.06a.34.34 0 0 0-.345.333c0 .183.154.331.345.331h3.06c.57 0 1.036.447 1.036.996v4.819l-1.171-1.127a.356.356 0 0 0-.488 0 .323.323 0 0 0 0 .47l1.76 1.692a.351.351 0 0 0 .244.097.35.35 0 0 0 .244-.097l1.76-1.692a.323.323 0 0 0 0-.47M8.43 9.86H5.368c-.571 0-1.036-.447-1.036-.996V4.046l1.17 1.125a.351.351 0 0 0 .246.098.35.35 0 0 0 .244-.098.323.323 0 0 0 0-.47L4.233 3.01a.353.353 0 0 0-.489 0l-1.76 1.692a.323.323 0 0 0 0 .469c.134.13.353.13.488 0l1.17-1.125v4.818c0 .915.775 1.659 1.727 1.659h3.06c.19 0 .345-.148.345-.331a.34.34 0 0 0-.345-.333"/>
        </g>
    </g>
</svg>
