<svg xmlns="http://www.w3.org/2000/svg" width="12" height="12" viewBox="0 0 12 12">
    <path fill="#BABABA" fill-rule="evenodd" d="M5.92 0a6 6 0 1 0 .161 12A6 6 0 0 0 5.92 0zm.665 2c.61 0 .79.354.79.758 0 .506-.405.973-1.095.973-.578 0-.853-.29-.837-.77 0-.405.34-.961 1.142-.961zM5.02 9.75c-.416 0-.722-.253-.43-1.365l.478-1.973c.083-.317.097-.443 0-.443-.125 0-.666.219-.986.433l-.208-.34c1.014-.847 2.18-1.344 2.679-1.344.417 0 .487.493.278 1.251l-.547 2.074c-.097.367-.056.493.041.493.125 0 .535-.152.938-.468l.236.316C6.514 9.37 5.438 9.75 5.02 9.75z"/>
</svg>
