<svg xmlns="http://www.w3.org/2000/svg" width="16" height="14" viewBox="0 0 16 14">
    <g fill="none" fill-rule="evenodd">
        <path d="M-2-3h20v20H-2z"/>
        <path fill="#1DA1F2" d="M16 1.657a6.203 6.203 0 0 1-1.885.557A3.511 3.511 0 0 0 15.558.258c-.634.405-1.337.7-2.085.858C12.875.43 12.022 0 11.077 0 9.265 0 7.795 1.582 7.795 3.534c0 .277.029.547.085.806C5.152 4.192 2.733 2.785 1.114.647a3.726 3.726 0 0 0-.445 1.777c0 1.226.58 2.308 1.46 2.942a3.094 3.094 0 0 1-1.486-.443v.045c0 1.712 1.131 3.14 2.633 3.465a3.07 3.07 0 0 1-1.483.061c.418 1.404 1.63 2.426 3.067 2.454-1.124.949-2.539 1.513-4.077 1.513-.265 0-.526-.016-.783-.049A8.817 8.817 0 0 0 5.032 14c6.038 0 9.34-5.386 9.34-10.056 0-.153-.004-.306-.01-.457A6.975 6.975 0 0 0 16 1.657z"/>
    </g>
</svg>
