<svg xmlns="http://www.w3.org/2000/svg" width="143" height="44" viewBox="0 0 143 44">
    <g fill="none" fill-rule="evenodd">
        <text fill="#FFF" font-family="Roboto-Light, Roboto" font-size="18" font-weight="300" transform="translate(53 7)">
            <tspan x="0" y="26">Intelligence</tspan>
        </text>
        <g fill="#AAB2BD">
            <path d="M54.048 15.875c-.054-.054-.068-.134-.014-.2l.586-.693c.053-.068.12-.068.187-.014.586.467 1.493.934 2.533.934 1.253 0 2-.628 2-1.546 0-.774-.44-1.294-1.893-1.48l-.454-.067c-1.76-.24-2.666-1.08-2.666-2.506 0-1.613 1.16-2.653 2.96-2.653 1.066 0 2.092.347 2.759.84.066.053.08.12.027.187l-.454.733c-.053.067-.12.067-.187.026-.732-.453-1.413-.679-2.185-.679-1.107 0-1.72.6-1.72 1.466 0 .76.507 1.267 1.906 1.453l.44.067c1.773.24 2.666 1.053 2.666 2.532 0 1.586-1.12 2.733-3.306 2.733-1.28 0-2.519-.52-3.185-1.133M62.213 15.276c-.134-.414-.213-.88-.213-1.613s.066-1.227.199-1.613c.36-1.107 1.293-1.72 2.507-1.72 1.226 0 2.146.627 2.506 1.72.133.414.2.853.2 1.827 0 .079-.054.132-.148.132h-4.039a.08.08 0 0 0-.08.079c0 .347.04.562.107.774.254.734.827 1.106 1.613 1.106.76 0 1.294-.305 1.64-.706.066-.066.133-.08.2-.026l.546.492c.067.053.067.12.013.188-.506.64-1.373 1.093-2.492 1.093-1.293 0-2.213-.626-2.56-1.733zm3.971-2.16a.08.08 0 0 0 .081-.08c0-.293-.027-.519-.094-.72-.212-.64-.746-1-1.465-1-.72 0-1.254.36-1.467 1-.066.201-.093.427-.093.72a.08.08 0 0 0 .08.08h2.958zM73.145 17.011a.134.134 0 0 1-.134-.133v-3.732c0-1.027-.466-1.627-1.426-1.627-.866 0-1.466.614-1.466 1.56v3.8c0 .072-.06.132-.133.132h-.852a.133.133 0 0 1-.134-.133V10.76c0-.074.059-.134.132-.134h.854c.073 0 .133.06.133.134v.587h.014c.306-.494.919-.867 1.786-.867 1.385 0 2.212.946 2.212 2.4v3.998a.133.133 0 0 1-.133.133h-.853zM77.967 17.008c-1.24 0-1.72-.56-1.72-1.813v-3.629a.08.08 0 0 0-.08-.08h-.533a.134.134 0 0 1-.134-.133v-.64c0-.073.06-.132.134-.132h.533a.08.08 0 0 0 .08-.08V7.783c0-.075.06-.134.134-.134h.852c.074 0 .133.059.133.134V10.5c0 .045.036.08.081.08h1.013c.074 0 .133.06.133.133v.64a.133.133 0 0 1-.133.134h-1.013a.08.08 0 0 0-.08.08v3.588c0 .64.24.813.812.813h.281c.074 0 .133.06.133.133v.774a.133.133 0 0 1-.133.133h-.493zM80.134 8.96A.134.134 0 0 1 80 8.825v-.973c0-.073.06-.133.134-.133h.907c.073 0 .132.059.132.133v.973a.133.133 0 0 1-.132.133h-.907zm.026 8.05a.132.132 0 0 1-.133-.133V10.76c0-.074.059-.133.133-.133h.854c.072 0 .132.06.132.133v6.118c0 .075-.06.134-.132.134h-.854zM83.643 17.01a.134.134 0 0 1-.134-.132v-5.265a.08.08 0 0 0-.08-.08h-.545a.133.133 0 0 1-.134-.133v-.64c0-.075.06-.134.134-.134h.546a.08.08 0 0 0 .08-.08v-.774c0-1.506.613-2.052 1.946-2.052h.493c.074 0 .133.059.133.133v.774c0 .073-.06.132-.133.132h-.347c-.812 0-.973.173-.973.96v.827c0 .045.037.08.08.08h1.24c.074 0 .133.06.133.133v.641c0 .073-.06.133-.133.133h-1.24a.08.08 0 0 0-.08.08v5.265a.133.133 0 0 1-.133.133h-.853zm3.999-8.042a.134.134 0 0 1-.134-.135V7.86c0-.073.06-.132.134-.132h.907c.073 0 .132.06.132.132v.973a.133.133 0 0 1-.132.135h-.907zm.026 8.043a.133.133 0 0 1-.132-.133v-6.119c0-.074.059-.133.132-.133h.854c.073 0 .133.06.133.133v6.119c0 .073-.06.133-.133.133h-.854z"/>
        </g>
        <g fill-rule="nonzero">
            <path fill="#F47B20" d="M41.491 44H2.508A2.509 2.509 0 0 1 0 41.491V2.51A2.509 2.509 0 0 1 2.508 0H41.49A2.509 2.509 0 0 1 44 2.509V41.49A2.509 2.509 0 0 1 41.491 44"/>
            <path fill="#FFF" d="M36.827 11.457A2.453 2.453 0 0 0 34.378 9H14.792C9.384 9 5 13.4 5 18.827s4.384 9.826 9.792 9.826h14.69c1.352 0 2.448-1.1 2.448-2.457a2.453 2.453 0 0 0-2.448-2.457h-14.69c-2.704 0-4.896-2.2-4.896-4.912 0-2.713 2.192-4.913 4.896-4.913h19.586c1.353 0 2.449-1.1 2.449-2.457"/>
            <path fill="#FFF" d="M11.897 18.443a2.446 2.446 0 0 0 2.448 2.444h14.69a4.89 4.89 0 0 1 4.896 4.885 4.891 4.891 0 0 1-4.897 4.886H12.121c-.784 0-1.537.311-2.092.865L7.717 33.83a2.44 2.44 0 0 0 0 3.455 2.452 2.452 0 0 0 3.462 0l1.529-1.526a.736.736 0 0 1 .52-.214h15.806c5.408 0 9.793-4.376 9.793-9.773 0-5.397-4.385-9.772-9.793-9.772H14.345a2.446 2.446 0 0 0-2.448 2.443"/>
        </g>
    </g>
</svg>
